<svg xmlns="http://www.w3.org/2000/svg" viewBox="0 0 1199 448" width="1199" height="448" style="background-color: transparent;"><defs><style>@import url('https://fonts.googleapis.com/css2?family=Caveat+Brush&amp;family=Source+Code+Pro&amp;family=Source+Sans+Pro&amp;family=Crimson+Pro&amp;display=block');</style></defs><g id="9dceb2bf-0bab-4d19-127b-d693dcb57f80_svg" class="tl-centered-g" transform="translate(237.00, 62.00) rotate(0.00, 403.00, 185.00)"><path d="M806.59,87.03 Q806.49,99.19 806.44,106.83 T806.33,122.49 806.21,138.65 806.10,154.94 805.99,171.26 805.93,187.59 805.94,203.92 805.94,220.25 805.94,236.58 805.95,252.91 805.95,269.24 805.96,285.58 805.96,301.91 805.97,318.24 805.97,334.57 805.97,350.93 804.10,363.22 795.47,368.49 780.95,369.88 765.16,370.17 749.06,370.23 732.87,370.24 716.66,370.23 700.44,370.22 684.23,370.21 668.01,370.20 651.79,370.19 635.58,370.18 619.36,370.17 603.14,370.16 586.92,370.15 570.70,370.13 554.49,370.12 538.27,370.11 522.05,370.10 505.83,370.09 489.62,370.08 473.40,370.07 457.18,370.06 440.96,370.05 424.75,370.03 408.53,370.04 392.31,370.06 376.09,370.11 359.88,370.15 343.66,370.19 327.44,370.23 311.22,370.27 295.01,370.32 278.79,370.36 262.57,370.40 246.35,370.44 230.14,370.48 213.92,370.53 197.70,370.57 181.48,370.61 165.27,370.65 149.05,370.69 132.83,370.74 116.61,370.78 100.40,370.82 84.18,370.86 67.96,370.90 51.74,370.94 35.53,370.99 19.28,371.02 7.05,369.18 1.82,360.50 0.46,345.86 0.21,329.94 0.17,313.69 0.20,297.36 0.23,281.00 0.27,264.64 0.32,248.28 0.36,231.91 0.40,215.55 0.44,199.18 0.42,182.82 0.35,166.45 0.27,150.09 0.19,133.73 0.12,117.36 0.04,101.00 -0.04,84.63 -0.11,68.27 -0.19,51.91 -0.27,35.54 -0.34,19.15 1.49,6.83 10.12,1.56 24.67,0.18 40.48,-0.09 56.62,-0.14 72.84,-0.13 89.08,-0.11 105.33,-0.09 121.58,-0.06 137.83,-0.04 154.08,-0.01 170.33,0.02 186.58,0.04 202.83,0.07 219.08,0.09 235.33,0.12 251.58,0.15 267.83,0.17 284.08,0.20 300.33,0.22 316.58,0.25 332.83,0.28 349.08,0.30 365.33,0.33 381.58,0.35 397.83,0.37 414.08,0.35 430.33,0.33 446.58,0.30 462.83,0.27 479.08,0.24 495.33,0.22 511.58,0.19 527.83,0.16 544.08,0.14 560.33,0.11 576.58,0.08 592.83,0.05 609.08,0.03 625.33,0.00 641.58,-0.03 657.83,-0.05 674.08,-0.08 690.33,-0.11 706.58,-0.13 722.83,-0.16 739.08,-0.19 755.33,-0.22 771.58,-0.24 787.85,-0.27 800.10,1.59 805.31,10.26 806.61,24.88 806.80,40.77 806.76,56.98 806.66,73.28 806.55,89.60 806.44,105.93 806.33,122.26 806.21,138.60 806.10,154.93 805.99,171.26 805.93,187.59 805.93,206.71 805.89,217.85 805.77,218.19 805.56,218.47 805.26,218.67 804.92,218.77 804.56,218.75 804.23,218.61 803.96,218.38 803.77,218.08 803.70,217.73 803.74,217.37 803.89,217.05 804.14,216.79 804.45,216.62 804.80,216.57 805.16,216.63 805.47,216.80 805.72,217.06 805.86,217.38 805.90,217.73 805.82,218.08 805.64,218.39 805.37,218.62 805.03,218.75 804.68,218.77 804.33,218.67 804.04,218.47 803.82,218.18 803.71,217.85 803.68,217.67 803.75,206.71 803.87,187.58 803.93,171.25 803.92,154.92 803.92,138.59 803.91,122.26 803.91,105.93 803.90,89.60 803.89,73.28 803.87,56.98 803.79,40.81 803.50,25.13 802.61,11.36 798.92,4.12 787.80,3.00 771.58,2.98 755.33,2.95 739.08,2.93 722.83,2.90 706.58,2.87 690.33,2.85 674.08,2.82 657.83,2.80 641.58,2.77 625.33,2.74 609.08,2.72 592.83,2.69 576.58,2.67 560.33,2.64 544.08,2.61 527.83,2.59 511.58,2.56 495.33,2.54 479.08,2.51 462.83,2.48 446.58,2.46 430.33,2.43 414.08,2.41 397.83,2.39 381.58,2.41 365.33,2.43 349.08,2.46 332.83,2.49 316.58,2.51 300.33,2.54 284.08,2.57 267.83,2.60 251.58,2.62 235.33,2.65 219.08,2.68 202.83,2.70 186.58,2.73 170.33,2.76 154.08,2.79 137.83,2.81 121.58,2.84 105.33,2.87 89.08,2.90 72.84,2.93 56.63,2.97 40.54,3.07 24.94,3.39 11.24,4.29 4.02,8.00 2.89,19.20 2.86,35.54 2.82,51.90 2.77,68.27 2.73,84.63 2.69,101.00 2.65,117.36 2.61,133.72 2.57,150.09 2.52,166.45 2.48,182.82 2.50,199.18 2.58,215.54 2.65,231.91 2.73,248.27 2.81,264.64 2.88,281.00 2.97,297.35 3.06,313.68 3.21,329.88 3.57,345.59 4.52,359.39 8.23,366.65 19.33,367.76 35.52,367.77 51.74,367.78 67.96,367.79 84.18,367.80 100.39,367.81 116.61,367.82 132.83,367.83 149.05,367.84 165.26,367.86 181.48,367.87 197.70,367.88 213.92,367.89 230.13,367.90 246.35,367.91 262.57,367.92 278.79,367.93 295.00,367.94 311.22,367.96 327.44,367.97 343.66,367.98 359.87,367.99 376.09,368.00 392.31,368.01 408.53,368.01 424.74,367.98 440.96,367.94 457.18,367.90 473.40,367.86 489.61,367.81 505.83,367.77 522.05,367.73 538.27,367.69 554.49,367.65 570.70,367.60 586.92,367.56 603.14,367.52 619.36,367.48 635.57,367.44 651.79,367.39 668.01,367.35 684.22,367.31 700.44,367.27 716.66,367.23 732.86,367.18 749.04,367.12 765.10,367.00 780.67,366.68 794.35,365.76 801.56,362.05 802.74,350.87 802.85,334.56 802.96,318.23 803.07,301.90 803.19,285.57 803.30,269.24 803.42,252.90 803.53,236.57 803.64,220.24 803.76,203.91 803.87,187.58 803.93,171.25 803.92,154.93 803.92,138.65 803.91,122.48 803.91,106.82 803.89,93.10 803.90,86.86 803.98,86.54 804.13,86.25 804.35,86.01 804.62,85.83 804.92,85.72 805.24,85.68 805.56,85.72 805.87,85.83 806.13,86.02 806.35,86.26 806.50,86.55 806.57,86.86 Z" fill="#36a64c" stroke="#36a64c" stroke-width="2" pointer-events="none"/></g><text font-size="28px" font-family="Source Sans Pro" font-weight="normal" line-height="28px" letter-spacing="-0.03em" text-align="center" dominant-baseline="mathematical" alignment-baseline="mathematical" text-anchor="middle" fill="#36a64c" transform="translate(536.00, 16.00) rotate(0.00, 73.00, 19.00)"><tspan y="14px" x="73">CSV Modeler
</tspan></text><g id="6dc4c5bb-aa42-4441-236c-348717c3d2c5_svg" class="tl-centered-g" transform="translate(16.00, 276.00) rotate(0.00, 102.50, 0.52)"><defs><mask id="6dc4c5bb-aa42-4441-236c-348717c3d2c5_clip"><rect x="-100" y="-100" width="405" height="201.04" fill="white"/><rect x="102.5" y="0.52" width="0" height="0" rx="4" ry="4" fill="black" opacity="1"/></mask></defs><g pointer-events="none" opacity="1" mask=""><path d="M0.01,-1.05 Q50.76,-0.74 76.13,-0.59 T126.88,-0.29 177.63,-0.01 203.15,0.15 203.42,0.25 203.65,0.42 203.81,0.66 203.88,0.94 203.87,1.23 203.76,1.49 203.57,1.71 203.32,1.86 203.04,1.92 202.76,1.89 202.50,1.76 202.29,1.56 202.16,1.31 202.11,1.03 202.16,0.74 202.29,0.49 202.50,0.29 202.77,0.17 203.05,0.14 203.33,0.21 203.58,0.36 203.76,0.58 203.87,0.84 203.88,1.13 203.81,1.41 203.64,1.64 203.41,1.82 203.14,1.91 203.00,1.93 177.62,1.81 126.87,1.58 76.12,1.36 25.37,1.15 -0.13,1.03 -0.37,0.97 -0.60,0.86 -0.78,0.69 -0.93,0.48 -1.01,0.24 -1.04,-0.01 -1.01,-0.25 -0.92,-0.49 -0.78,-0.70 -0.59,-0.86 -0.36,-0.98 -0.12,-1.04 Z" fill="#36a64c" stroke="#36a64c" stroke-width="2.11" stroke-dasharray="none" stroke-dashoffset="none" stroke-linecap="round" stroke-linejoin="round" pointer-events="stroke"/><g><path d="M 191.18,-7.030192064856453 L 205,1.04 191.10,8.96960204262721" fill="none" stroke="#36a64c" stroke-width="4.23" stroke-linecap="round" stroke-linejoin="round" pointer-events="none"/></g></g></g><text font-size="28px" font-family="Source Sans Pro" font-weight="normal" line-height="28px" letter-spacing="-0.03em" text-align="center" dominant-baseline="mathematical" alignment-baseline="mathematical" text-anchor="middle" fill="#36a64c" transform="translate(40.50, 235.00) rotate(0.00, 68.50, 19.00)"><tspan y="14px" x="68.5">CSV Upload
</tspan></text><g id="53f40f44-5113-4c56-130e-1a69b6c81778_svg" class="tl-centered-g" transform="translate(221.00, 249.00) rotate(0.00, 112.00, 30.00)"><path d="M87.83,-0.19 Q100.07,-0.06 107.75,-0.05 T123.50,-0.06 139.75,-0.12 156.13,-0.19 172.54,-0.25 188.96,-0.31 205.41,-0.37 217.69,1.35 222.82,6.47 224.01,13.37 224.02,20.43 223.88,27.45 223.87,34.47 223.94,41.50 223.98,48.58 222.14,55.05 213.41,58.76 198.70,59.72 182.77,59.88 166.49,59.89 150.11,59.86 133.71,59.83 117.30,59.84 100.90,59.95 84.49,60.12 68.08,60.28 51.68,60.44 35.27,60.60 18.84,60.76 6.55,59.10 1.41,53.93 0.20,46.88 0.16,39.65 0.28,32.44 0.26,25.24 0.17,18.03 0.10,10.76 1.93,4.17 10.67,0.46 25.38,-0.41 41.33,-0.48 57.62,-0.39 74.01,-0.27 90.43,-0.13 106.85,-0.05 123.27,-0.06 142.50,-0.12 153.72,-0.11 154.10,0.02 154.42,0.26 154.64,0.59 154.75,0.98 154.73,1.37 154.58,1.75 154.32,2.05 153.97,2.25 153.58,2.34 153.19,2.29 152.83,2.13 152.54,1.85 152.35,1.50 152.29,1.10 152.35,0.71 152.54,0.36 152.83,0.08 153.19,-0.08 153.59,-0.12 153.98,-0.04 154.32,0.17 154.58,0.47 154.73,0.84 154.75,1.24 154.64,1.63 154.41,1.96 154.10,2.20 153.72,2.32 153.52,2.36 142.50,2.28 123.26,2.14 106.84,2.05 90.42,2.07 74.01,2.13 57.63,2.21 41.36,2.32 25.55,2.58 11.72,3.18 4.45,5.49 3.18,10.93 2.91,18.07 2.63,25.27 2.46,32.45 2.53,39.57 2.89,46.41 3.81,52.41 7.59,56.34 18.87,57.57 35.26,57.60 51.66,57.64 68.07,57.68 84.48,57.72 100.89,57.75 117.30,57.74 133.70,57.63 150.10,57.46 166.47,57.29 182.72,57.08 198.52,56.73 212.34,56.05 219.61,53.72 220.90,48.40 221.19,41.45 221.50,34.43 221.70,27.43 221.65,20.49 221.32,13.84 220.43,7.99 216.65,4.12 205.35,2.82 188.95,2.69 172.53,2.55 156.12,2.41 139.74,2.28 123.49,2.14 107.74,2.05 93.95,2.07 87.69,2.09 87.42,2.03 87.18,1.90 86.98,1.71 86.82,1.49 86.72,1.23 86.69,0.96 86.72,0.68 86.82,0.43 86.98,0.20 87.18,0.02 87.43,-0.11 87.70,-0.17 Z" fill="#b7bdc3" stroke="#b7bdc3" stroke-width="2" pointer-events="none"/></g><text font-size="28px" font-family="Source Sans Pro" font-weight="normal" line-height="28px" letter-spacing="-0.03em" text-align="center" dominant-baseline="mathematical" alignment-baseline="mathematical" text-anchor="middle" fill="#b7bdc3" transform="translate(280.00, 258.00) rotate(0.00, 51.00, 19.00)"><tspan y="14px" x="51">Analyzer
</tspan></text><g id="1fb262df-2d03-4afa-1f05-e7a8d8261492_svg" class="tl-centered-g" transform="translate(866.00, 345.00) rotate(0.00, 101.50, 30.50)"><path d="M-0.80,19.08 Q-1.00,13.57 -1.08,10.04 T0.68,3.62 9.84,-0.02 25.51,-0.82 42.54,-0.81 59.97,-0.65 77.50,-0.45 95.06,-0.31 112.63,-0.27 130.20,-0.30 147.77,-0.33 165.34,-0.35 182.93,-0.37 195.92,1.36 201.33,6.58 202.80,13.76 203.09,21.13 203.22,28.48 203.48,35.83 203.82,43.17 204.13,50.59 202.44,57.29 193.28,61.02 177.55,61.87 160.44,61.89 142.94,61.77 125.32,61.60 107.69,61.49 90.04,61.49 72.39,61.55 54.75,61.61 37.10,61.66 19.43,61.72 6.38,60.00 1.00,54.75 -0.36,47.53 -0.53,40.11 -0.54,32.71 -0.68,25.31 -0.90,16.65 -0.97,11.45 -0.82,11.01 -0.54,10.63 -0.15,10.37 0.30,10.24 0.77,10.27 1.20,10.44 1.56,10.74 1.80,11.14 1.90,11.60 1.85,12.06 1.66,12.49 1.34,12.83 0.93,13.05 0.46,13.12 0.00,13.05 -0.41,12.83 -0.73,12.49 -0.93,12.07 -0.98,11.60 -0.88,11.15 -0.64,10.75 -0.29,10.44 0.15,10.27 0.61,10.24 1.06,10.36 1.45,10.63 1.73,11.00 1.89,11.44 1.92,11.67 1.85,16.64 1.69,25.30 1.64,32.68 1.83,40.00 2.31,47.02 3.38,53.19 7.40,57.21 19.48,58.55 37.11,58.72 54.76,58.90 72.40,59.07 90.05,59.25 107.69,59.37 125.33,59.37 142.94,59.30 160.42,59.19 177.40,58.93 192.26,58.32 199.94,56.01 201.05,50.51 201.07,43.23 201.11,35.88 201.04,28.55 200.73,21.29 200.13,14.31 198.98,8.18 194.91,4.16 182.87,2.80 165.33,2.59 147.76,2.38 130.19,2.17 112.62,1.96 95.05,1.81 77.49,1.78 59.97,1.82 42.56,1.90 25.65,2.12 10.85,2.69 3.18,4.93 1.99,10.17 1.85,16.32 1.74,19.23 1.67,19.53 1.53,19.80 1.33,20.03 1.08,20.20 0.79,20.31 0.49,20.35 0.18,20.31 -0.10,20.20 -0.36,20.03 -0.56,19.80 -0.70,19.53 -0.78,19.24 Z" fill="#1e78c8" stroke="#1e78c8" stroke-width="2" pointer-events="none"/></g><text font-size="28px" font-family="Source Sans Pro" font-weight="normal" line-height="28px" letter-spacing="-0.03em" text-align="center" dominant-baseline="mathematical" alignment-baseline="mathematical" text-anchor="middle" fill="#b7bdc3" transform="translate(895.50, 357.00) rotate(0.00, 63.50, 19.00)"><tspan y="14px" x="63.5">JSON Data
</tspan></text><g id="8a0fff23-7c56-4744-1986-8bb840e2b7e9_svg" class="tl-centered-g" transform="translate(865.00, 264.00) rotate(0.00, 98.50, 32.50)"><path d="M197.41,44.56 Q197.52,50.56 197.54,54.39 T195.71,61.18 186.75,64.94 171.56,65.83 155.06,65.90 138.20,65.82 121.24,65.69 104.25,65.62 87.26,65.66 70.27,65.77 53.27,65.87 36.27,65.97 19.26,66.07 6.60,64.35 1.33,58.91 0.03,51.27 -0.11,43.37 -0.09,35.47 -0.20,27.57 -0.39,19.66 -0.56,11.68 1.21,4.64 10.17,0.78 25.42,-0.21 41.98,-0.37 58.91,-0.37 75.94,-0.34 92.99,-0.36 110.06,-0.50 127.12,-0.69 144.18,-0.88 161.24,-1.08 178.33,-1.26 191.04,0.40 196.28,5.90 197.50,13.65 197.53,21.68 197.41,29.72 197.41,37.77 197.47,47.21 197.45,52.85 197.29,53.29 197.01,53.66 196.61,53.91 196.16,54.03 195.70,54.00 195.26,53.82 194.91,53.52 194.68,53.11 194.58,52.65 194.64,52.19 194.84,51.77 195.17,51.43 195.58,51.22 196.05,51.15 196.51,51.23 196.92,51.46 197.23,51.80 197.42,52.23 197.47,52.69 197.36,53.15 197.11,53.55 196.75,53.84 196.32,54.01 195.85,54.03 195.40,53.90 195.02,53.63 194.74,53.25 194.60,52.81 194.56,52.58 194.73,47.17 195.04,37.75 195.22,29.71 195.16,21.75 194.80,14.08 193.86,7.35 189.99,3.13 178.30,1.91 161.26,1.87 144.19,1.83 127.13,1.78 110.07,1.74 93.00,1.76 75.95,1.89 58.93,2.10 42.02,2.34 25.60,2.73 11.23,3.47 3.74,5.93 2.52,11.80 2.35,19.65 2.17,27.56 2.09,35.45 2.26,43.28 2.71,50.80 3.74,57.41 7.65,61.60 19.30,62.89 36.28,63.02 53.27,63.16 70.27,63.29 87.26,63.43 104.26,63.50 121.24,63.46 138.20,63.34 155.03,63.19 171.39,62.89 185.71,62.24 193.19,59.87 194.46,54.23 194.72,47.52 194.88,44.37 194.96,44.07 195.10,43.80 195.31,43.58 195.56,43.41 195.85,43.30 196.15,43.27 196.46,43.31 196.74,43.42 196.99,43.60 197.19,43.83 197.33,44.11 197.40,44.40 Z" fill="#1e78c8" stroke="#1e78c8" stroke-width="2" pointer-events="none"/></g><text font-size="28px" font-family="Source Sans Pro" font-weight="normal" line-height="28px" letter-spacing="-0.03em" text-align="center" dominant-baseline="mathematical" alignment-baseline="mathematical" text-anchor="middle" fill="#b7bdc3" transform="translate(894.50, 193.00) rotate(0.00, 55.50, 19.00)"><tspan y="14px" x="55.5">XML Data
</tspan></text><g id="8a899237-ae61-4ea9-2219-c4051ac4e8ed_svg" class="tl-centered-g" transform="translate(1067.50, 205.00) rotate(0.00, 57.75, 0.50)"><defs><mask id="8a899237-ae61-4ea9-2219-c4051ac4e8ed_clip"><rect x="-100" y="-100" width="315.5" height="201" fill="white"/><rect x="57.75" y="0.5" width="0" height="0" rx="3.60" ry="3.60" fill="black" opacity="1"/></mask></defs><g pointer-events="none" opacity="1" mask=""><path d="M0.01,-0.93 Q28.38,-0.61 42.57,-0.46 T70.94,-0.17 99.32,0.11 113.62,0.27 113.85,0.34 114.03,0.49 114.16,0.68 114.22,0.91 114.21,1.14 114.12,1.36 113.97,1.54 113.76,1.66 113.53,1.71 113.30,1.68 113.09,1.58 112.92,1.42 112.81,1.21 112.77,0.98 112.81,0.74 112.93,0.54 113.10,0.38 113.31,0.28 113.55,0.26 113.77,0.31 113.98,0.43 114.13,0.61 114.21,0.83 114.22,1.07 114.16,1.29 114.02,1.49 113.83,1.63 113.61,1.70 113.49,1.72 99.31,1.61 70.93,1.40 42.56,1.20 14.18,1.02 -0.12,0.92 -0.34,0.86 -0.53,0.76 -0.70,0.61 -0.82,0.42 -0.90,0.21 -0.92,-0.01 -0.90,-0.23 -0.81,-0.44 -0.69,-0.62 -0.52,-0.77 -0.32,-0.87 -0.10,-0.92 Z" fill="#b7bdc3" stroke="#b7bdc3" stroke-width="2.11" stroke-dasharray="none" stroke-dashoffset="none" stroke-linecap="round" stroke-linejoin="round" pointer-events="stroke"/><g><path d="M 101.71,-7.119664563257176 L 115.5,1 101.57,8.879735781544351" fill="none" stroke="#b7bdc3" stroke-width="4.23" stroke-linecap="round" stroke-linejoin="round" pointer-events="none"/></g></g></g><g id="17a3336f-46b7-4cfe-04e1-b4980fa31611_svg" class="tl-centered-g" transform="translate(1069.00, 370.00) rotate(0.00, 54.50, 1.94)"><defs><mask id="17a3336f-46b7-4cfe-04e1-b4980fa31611_clip"><rect x="-100" y="-100" width="309" height="203.88" fill="white"/><rect x="54.5" y="1.94" width="0" height="0" rx="3.40" ry="3.40" fill="black" opacity="1"/></mask></defs><g pointer-events="none" opacity="1" mask=""><path d="M-0.03,3.02 Q26.72,2.15 40.10,1.70 T66.85,0.80 93.60,-0.11 107.08,-0.56 107.28,-0.50 107.45,-0.38 107.57,-0.22 107.63,-0.02 107.63,0.19 107.56,0.38 107.43,0.54 107.26,0.65 107.06,0.70 106.85,0.69 106.66,0.61 106.51,0.47 106.41,0.30 106.37,0.09 106.39,-0.11 106.48,-0.30 106.63,-0.44 106.81,-0.53 107.01,-0.56 107.22,-0.53 107.40,-0.43 107.53,-0.28 107.62,-0.09 107.63,0.12 107.59,0.32 107.48,0.49 107.32,0.62 107.13,0.69 107.02,0.71 93.65,1.21 66.90,2.20 40.15,3.20 13.40,4.23 -0.07,4.74 -0.28,4.69 -0.46,4.60 -0.62,4.47 -0.75,4.31 -0.83,4.11 -0.86,3.91 -0.84,3.70 -0.77,3.51 -0.66,3.33 -0.51,3.19 -0.33,3.09 -0.13,3.03 Z" fill="#b7bdc3" stroke="#b7bdc3" stroke-width="2.11" stroke-dasharray="none" stroke-dashoffset="none" stroke-linecap="round" stroke-linejoin="round" pointer-events="stroke"/><g><path d="M 94.86,-7.502011389297554 L 109,0 95.43,8.487861443944462" fill="none" stroke="#b7bdc3" stroke-width="4.23" stroke-linecap="round" stroke-linejoin="round" pointer-events="none"/></g></g></g><g id="737e5c2e-e6c2-4754-38a4-0f46f76cebc5_svg" class="tl-centered-g" transform="translate(253.00, 95.00) rotate(0.00, 109.00, 52.00)"><path d="M-0.53,32.35 Q-0.74,22.43 -0.84,16.16 T0.91,6.28 9.98,1.65 25.50,0.44 42.40,0.20 59.67,0.15 77.03,0.15 94.43,0.16 111.83,0.06 129.23,-0.14 146.63,-0.35 164.03,-0.55 181.43,-0.75 198.86,-0.95 211.82,0.79 217.12,8.36 218.26,20.58 218.24,33.73 218.06,47.11 218.01,60.54 218.04,74.00 218.06,87.49 216.18,97.99 207.12,102.74 191.69,103.93 174.90,104.10 157.74,104.08 140.49,104.00 123.21,103.91 105.93,103.93 88.64,104.06 71.35,104.18 54.06,104.30 36.78,104.43 19.47,104.55 6.58,102.77 1.23,95.25 -0.07,83.13 -0.23,70.11 -0.25,56.87 -0.40,43.57 -0.63,27.97 -0.71,18.80 -0.57,18.35 -0.28,17.98 0.10,17.72 0.55,17.59 1.02,17.62 1.45,17.79 1.81,18.09 2.05,18.49 2.15,18.95 2.11,19.41 1.91,19.84 1.59,20.18 1.18,20.40 0.72,20.47 0.25,20.40 -0.16,20.18 -0.48,19.84 -0.68,19.42 -0.73,18.95 -0.63,18.50 -0.39,18.09 -0.04,17.79 0.40,17.62 0.86,17.59 1.32,17.71 1.70,17.98 1.99,18.35 2.14,18.79 2.18,19.02 2.11,27.96 1.97,43.56 1.93,56.85 2.14,70.04 2.65,82.82 3.76,94.04 7.71,100.18 19.51,101.36 36.77,101.45 54.06,101.55 71.35,101.64 88.64,101.73 105.92,101.82 123.21,101.81 140.49,101.68 157.73,101.54 174.85,101.35 191.47,100.97 206.05,100.07 213.66,96.77 214.96,87.39 215.30,73.97 215.64,60.52 215.88,47.09 215.86,33.76 215.54,20.85 214.57,9.51 210.68,3.35 198.83,2.23 181.45,2.22 164.05,2.21 146.64,2.19 129.24,2.18 111.84,2.17 94.44,2.27 77.05,2.47 59.69,2.69 42.46,2.96 25.73,3.41 11.06,4.33 3.44,7.49 2.25,16.23 2.11,27.38 2.01,32.50 1.94,32.80 1.79,33.07 1.59,33.30 1.34,33.47 1.05,33.58 0.75,33.62 0.45,33.58 0.16,33.48 -0.09,33.30 -0.30,33.07 -0.44,32.80 -0.51,32.51 Z" fill="#b7bdc3" stroke="#b7bdc3" stroke-width="2" pointer-events="none"/></g><text font-size="28px" font-family="Source Sans Pro" font-weight="normal" line-height="28px" letter-spacing="-0.03em" text-align="center" dominant-baseline="mathematical" alignment-baseline="mathematical" text-anchor="middle" fill="#b7bdc3" transform="translate(283.00, 115.00) rotate(0.00, 87.00, 33.00)"><tspan y="14px" x="87">Model Editor &amp; 
</tspan><tspan y="42px" x="87">
Generator
</tspan></text><g id="3ecc10e6-a8fb-489a-159f-63400022069f_svg" class="tl-centered-g" transform="translate(530.00, 118.00) rotate(0.00, 66.50, 96.00)"><path d="M93.29,-0.08 Q106.43,-0.33 114.69,-0.46 T127.09,1.28 132.30,10.02 133.50,24.80 133.58,40.88 133.43,57.30 133.23,73.80 133.07,90.33 133.03,106.86 133.04,123.40 133.05,139.94 133.07,156.47 133.07,173.04 131.19,185.46 122.04,190.69 106.38,191.96 89.31,192.13 71.88,192.16 54.34,192.33 36.78,192.57 19.19,192.80 6.11,191.05 0.72,182.32 -0.56,167.56 -0.69,151.49 -0.58,135.09 -0.42,118.61 -0.30,102.10 -0.29,85.58 -0.34,69.07 -0.39,52.55 -0.44,36.03 -0.48,19.49 1.37,7.08 10.54,1.83 26.25,0.54 43.37,0.35 60.87,0.28 78.46,0.09 99.09,-0.20 111.15,-0.31 111.60,-0.17 111.97,0.11 112.24,0.50 112.36,0.95 112.34,1.42 112.17,1.85 111.87,2.21 111.47,2.45 111.01,2.55 110.55,2.51 110.12,2.31 109.78,1.99 109.56,1.58 109.48,1.12 109.56,0.66 109.77,0.24 110.11,-0.08 110.53,-0.28 111.00,-0.33 111.46,-0.23 111.86,0.01 112.16,0.36 112.34,0.80 112.37,1.26 112.24,1.71 111.98,2.10 111.61,2.39 111.17,2.54 110.93,2.58 99.11,2.54 78.47,2.46 60.89,2.47 43.43,2.72 26.49,3.27 11.62,4.41 3.89,8.26 2.69,19.55 2.51,36.05 2.32,52.56 2.13,69.08 1.95,85.59 1.82,102.11 1.82,118.61 1.89,135.09 2.02,151.45 2.37,167.30 3.36,181.23 7.28,188.53 19.23,189.70 36.77,189.83 54.33,189.95 71.86,189.98 89.26,189.76 106.14,189.23 120.96,188.11 128.67,184.27 129.90,172.97 130.12,156.46 130.34,139.92 130.57,123.38 130.79,106.85 130.95,90.32 130.99,73.79 130.96,57.29 130.87,40.92 130.57,25.04 129.65,11.09 125.92,3.79 114.66,2.65 99.87,2.54 93.15,2.46 92.86,2.38 92.58,2.24 92.35,2.04 92.18,1.79 92.07,1.50 92.03,1.20 92.07,0.90 92.17,0.61 92.35,0.36 92.57,0.15 92.84,0.01 93.14,-0.06 Z" fill="#b7bdc3" stroke="#b7bdc3" stroke-width="2" pointer-events="none"/></g><text font-size="28px" font-family="Source Sans Pro" font-weight="normal" line-height="28px" letter-spacing="-0.03em" text-align="center" dominant-baseline="mathematical" alignment-baseline="mathematical" text-anchor="middle" fill="#b7bdc3" transform="translate(539.37, 227.50) rotate(0.00, 59.50, 19.00)"><tspan y="14px" x="59.5">Validation
</tspan></text><g id="f98bf837-e92c-480a-173f-bf35ee3d0aae_svg" class="tl-centered-g" transform="translate(861.00, 100.00) rotate(0.00, 101.50, 30.50)"><path d="M92.61,0.14 Q105.62,0.18 113.79,0.14 T130.55,0.06 147.85,-0.02 165.27,-0.09 182.76,-0.17 195.69,1.54 201.06,6.70 202.48,13.77 202.72,21.01 202.80,28.23 203.00,35.44 203.29,42.65 203.55,49.93 201.83,56.54 192.69,60.28 177.01,61.18 159.96,61.28 142.52,61.23 124.97,61.14 107.40,61.10 89.82,61.18 72.23,61.32 54.65,61.45 37.07,61.59 19.46,61.72 6.45,60.04 1.12,54.83 -0.16,47.69 -0.23,40.36 -0.14,33.06 -0.17,25.75 -0.28,18.44 -0.37,11.07 1.46,4.41 10.59,0.70 26.18,-0.16 43.13,-0.20 60.46,-0.09 77.90,0.05 95.37,0.15 112.84,0.13 133.30,0.07 145.23,0.07 145.63,0.20 145.95,0.45 146.19,0.80 146.30,1.20 146.27,1.61 146.12,1.99 145.85,2.31 145.49,2.52 145.09,2.61 144.68,2.56 144.30,2.39 144.00,2.10 143.81,1.74 143.75,1.33 143.81,0.92 144.01,0.55 144.31,0.27 144.68,0.10 145.10,0.05 145.50,0.14 145.85,0.36 146.12,0.67 146.27,1.06 146.29,1.47 146.18,1.87 145.95,2.21 145.62,2.46 145.23,2.59 145.02,2.63 133.29,2.54 112.83,2.37 95.36,2.27 77.90,2.29 60.47,2.38 43.16,2.51 26.34,2.78 11.62,3.40 3.97,5.73 2.71,11.23 2.46,18.47 2.20,25.77 2.05,33.06 2.14,40.28 2.52,47.21 3.50,53.30 7.47,57.27 19.50,58.55 37.07,58.64 54.65,58.74 72.23,58.84 89.81,58.94 107.39,58.99 124.97,58.91 142.51,58.76 159.93,58.57 176.85,58.24 191.65,57.57 199.32,55.25 200.47,49.83 200.54,42.68 200.63,35.47 200.61,28.28 200.36,21.15 199.81,14.31 198.70,8.30 194.68,4.34 182.70,3.01 165.27,2.85 147.84,2.69 130.55,2.53 113.79,2.37 99.11,2.28 92.48,2.25 92.23,2.19 92.01,2.07 91.82,1.90 91.67,1.69 91.58,1.45 91.55,1.20 91.58,0.95 91.67,0.71 91.82,0.50 92.01,0.34 92.23,0.22 92.48,0.16 Z" fill="#1e78c8" stroke="#1e78c8" stroke-width="2" pointer-events="none"/></g><g id="23f66bed-3eca-414b-020d-d17cd259f9e3_svg" class="tl-centered-g" transform="translate(863.00, 178.00) rotate(0.00, 101.50, 30.50)"><path d="M110.13,60.64 Q97.14,60.66 88.99,60.73 T72.27,60.86 55.02,61.00 37.63,61.14 20.19,61.28 7.28,59.61 1.94,54.45 0.60,47.40 0.46,40.18 0.47,32.99 0.36,25.79 0.18,18.60 0.01,11.34 1.78,4.75 10.91,1.03 26.51,0.15 43.47,0.08 60.81,0.16 78.26,0.27 95.74,0.33 113.22,0.28 130.71,0.17 148.19,0.06 165.68,-0.05 183.19,-0.15 196.14,1.54 201.45,6.69 202.72,13.70 202.79,20.88 202.69,28.03 202.72,35.18 202.82,42.33 202.91,49.54 201.08,56.09 191.97,59.81 176.41,60.71 159.50,60.81 142.20,60.76 124.80,60.68 107.38,60.64 89.95,60.72 69.53,60.87 57.62,60.91 57.23,60.77 56.90,60.52 56.67,60.18 56.56,59.78 56.58,59.37 56.73,58.99 57.00,58.67 57.35,58.46 57.76,58.37 58.17,58.41 58.55,58.59 58.85,58.87 59.04,59.23 59.11,59.64 59.04,60.05 58.85,60.42 58.55,60.70 58.17,60.88 57.76,60.92 57.36,60.83 57.00,60.62 56.73,60.30 56.58,59.92 56.56,59.51 56.67,59.11 56.90,58.77 57.23,58.52 57.62,58.38 57.83,58.35 69.53,58.39 89.94,58.49 107.38,58.53 124.80,58.44 142.19,58.29 159.46,58.10 176.24,57.77 190.93,57.10 198.57,54.77 199.83,49.38 200.08,42.30 200.35,35.15 200.50,28.03 200.42,20.97 200.04,14.19 199.07,8.24 195.12,4.32 183.14,3.02 165.68,2.90 148.19,2.77 130.71,2.65 113.22,2.52 95.74,2.45 78.26,2.51 60.82,2.63 43.50,2.79 26.67,3.09 11.94,3.74 4.30,6.06 3.09,11.47 2.92,18.60 2.73,25.79 2.66,32.96 2.82,40.07 3.28,46.89 4.31,52.88 8.29,56.82 20.23,58.10 37.63,58.20 55.02,58.29 72.27,58.39 88.99,58.49 103.63,58.53 110.26,58.54 110.50,58.60 110.73,58.72 110.92,58.88 111.06,59.09 111.15,59.33 111.18,59.58 111.15,59.83 111.06,60.07 110.92,60.28 110.73,60.45 110.50,60.56 110.26,60.63 Z" fill="#1e78c8" stroke="#1e78c8" stroke-width="2" pointer-events="none"/></g><text font-size="28px" font-family="Source Sans Pro" font-weight="normal" line-height="28px" letter-spacing="-0.03em" text-align="center" dominant-baseline="mathematical" alignment-baseline="mathematical" text-anchor="middle" fill="#b7bdc3" transform="translate(885.00, 111.00) rotate(0.00, 63.00, 19.00)"><tspan y="14px" x="63">XSD Model
</tspan></text><text font-size="28px" font-family="Source Sans Pro" font-weight="normal" line-height="28px" letter-spacing="-0.03em" text-align="center" dominant-baseline="mathematical" alignment-baseline="mathematical" text-anchor="middle" fill="#b7bdc3" transform="translate(880.00, 275.00) rotate(0.00, 72.00, 19.00)"><tspan y="14px" x="72">JSON Model
</tspan></text><g id="e1af9498-508d-4fca-2bd7-0af80a250315_svg" class="tl-centered-g" transform="translate(1064.00, 291.00) rotate(0.00, 54.50, 1.94)"><defs><mask id="e1af9498-508d-4fca-2bd7-0af80a250315_clip"><rect x="-100" y="-100" width="309" height="203.88" fill="white"/><rect x="54.5" y="1.94" width="0" height="0" rx="3.40" ry="3.40" fill="black" opacity="1"/></mask></defs><g pointer-events="none" opacity="1" mask=""><path d="M-0.03,2.94 Q26.72,2.05 40.10,1.60 T66.85,0.70 93.60,-0.22 107.10,-0.67 107.33,-0.60 107.52,-0.46 107.67,-0.27 107.74,-0.04 107.73,0.21 107.65,0.43 107.50,0.62 107.30,0.75 107.07,0.81 106.83,0.80 106.61,0.70 106.42,0.54 106.30,0.33 106.26,0.10 106.29,-0.14 106.39,-0.36 106.56,-0.53 106.78,-0.64 107.02,-0.67 107.25,-0.63 107.46,-0.51 107.63,-0.34 107.72,-0.11 107.74,0.13 107.69,0.36 107.56,0.56 107.37,0.72 107.15,0.80 107.03,0.83 93.65,1.32 66.90,2.30 40.16,3.30 13.41,4.31 -0.08,4.81 -0.30,4.77 -0.51,4.67 -0.68,4.53 -0.81,4.35 -0.90,4.14 -0.94,3.91 -0.92,3.69 -0.85,3.47 -0.72,3.28 -0.56,3.13 -0.36,3.02 -0.15,2.95 Z" fill="#b7bdc3" stroke="#b7bdc3" stroke-width="2.11" stroke-dasharray="none" stroke-dashoffset="none" stroke-linecap="round" stroke-linejoin="round" pointer-events="stroke"/><g><path d="M 94.86,-7.502011389297554 L 109,0 95.43,8.487861443944462" fill="none" stroke="#b7bdc3" stroke-width="4.23" stroke-linecap="round" stroke-linejoin="round" pointer-events="none"/></g></g></g><g id="cc6aa607-8468-43da-14c2-3a730047ac54_svg" class="tl-centered-g" transform="translate(1066.00, 127.00) rotate(0.00, 54.50, 1.94)"><defs><mask id="cc6aa607-8468-43da-14c2-3a730047ac54_clip"><rect x="-100" y="-100" width="309" height="203.88" fill="white"/><rect x="54.5" y="1.94" width="0" height="0" rx="3.40" ry="3.40" fill="black" opacity="1"/></mask></defs><g pointer-events="none" opacity="1" mask=""><path d="M-0.03,2.96 Q26.72,2.08 40.10,1.63 T66.85,0.73 93.60,-0.19 107.09,-0.63 107.31,-0.57 107.50,-0.44 107.64,-0.25 107.71,-0.03 107.70,0.20 107.62,0.42 107.48,0.60 107.29,0.72 107.06,0.78 106.84,0.76 106.62,0.67 106.45,0.52 106.34,0.32 106.29,0.10 106.32,-0.13 106.42,-0.34 106.58,-0.50 106.79,-0.61 107.01,-0.64 107.24,-0.60 107.44,-0.49 107.60,-0.32 107.69,-0.11 107.71,0.12 107.66,0.35 107.53,0.54 107.36,0.69 107.14,0.77 107.03,0.79 93.65,1.28 66.90,2.27 40.15,3.27 13.41,4.29 -0.08,4.79 -0.29,4.75 -0.49,4.65 -0.66,4.51 -0.79,4.33 -0.88,4.13 -0.91,3.91 -0.89,3.69 -0.82,3.48 -0.71,3.30 -0.55,3.15 -0.35,3.04 -0.14,2.98 Z" fill="#b7bdc3" stroke="#b7bdc3" stroke-width="2.11" stroke-dasharray="none" stroke-dashoffset="none" stroke-linecap="round" stroke-linejoin="round" pointer-events="stroke"/><g><path d="M 94.86,-7.502011389297554 L 109,0 95.43,8.487861443944462" fill="none" stroke="#b7bdc3" stroke-width="4.23" stroke-linecap="round" stroke-linejoin="round" pointer-events="none"/></g></g></g><g id="1fe01088-d9bc-4068-0f44-e64c90484cc1_svg" class="tl-centered-g" transform="translate(349.00, 206.00) rotate(0.00, 0.52, 21.50)"><defs><mask id="1fe01088-d9bc-4068-0f44-e64c90484cc1_clip"><rect x="-100" y="-100" width="201.03" height="243" fill="white"/><rect x="0.51" y="21.5" width="0" height="0" rx="2" ry="2" fill="black" opacity="1"/></mask></defs><g pointer-events="none" opacity="1" mask=""><path d="M0.10,43.02 Q-0.07,32.77 -0.17,27.64 T-0.37,17.39 -0.58,7.14 -0.67,1.90 -0.60,1.67 -0.46,1.48 -0.27,1.35 -0.05,1.28 0.19,1.29 0.41,1.37 0.59,1.52 0.72,1.71 0.77,1.94 0.75,2.18 0.66,2.39 0.50,2.57 0.30,2.68 0.07,2.73 -0.17,2.69 -0.38,2.59 -0.54,2.42 -0.65,2.21 -0.68,1.98 -0.63,1.75 -0.52,1.54 -0.34,1.39 -0.13,1.29 0.11,1.27 0.34,1.33 0.54,1.46 0.68,1.64 0.76,1.86 0.78,1.98 0.92,7.11 1.20,17.36 1.49,27.60 1.80,37.85 1.95,43.09 1.90,43.31 1.80,43.51 1.66,43.68 1.48,43.81 1.27,43.89 1.05,43.92 0.83,43.90 0.62,43.83 0.43,43.71 0.28,43.54 0.17,43.35 0.11,43.13 Z" fill="#ebbb38" stroke="#ebbb38" stroke-width="2.11" stroke-dasharray="none" stroke-dashoffset="none" stroke-linecap="round" stroke-linejoin="round" pointer-events="stroke"/><g><path d="M -6.869331278034008,12.58469745424362 L 0,0 7.46,12.241364120910287" fill="none" stroke="#ebbb38" stroke-width="4.23" stroke-linecap="round" stroke-linejoin="round" pointer-events="none"/></g></g></g><g id="1861cccb-cbc5-4436-1230-45f0c7c86a47_svg" class="tl-centered-g" transform="translate(445.00, 281.12) rotate(0.00, 42.50, 0.81)"><defs><mask id="1861cccb-cbc5-4436-1230-45f0c7c86a47_clip"><rect x="-100" y="-100" width="285" height="201.61" fill="white"/><rect x="42.5" y="0.80" width="0" height="0" rx="2.65" ry="2.65" fill="black" opacity="1"/></mask></defs><g pointer-events="none" opacity="1" mask=""><path d="M0.02,-1.04 Q20.77,-0.58 31.14,-0.37 T51.89,0.06 72.64,0.48 83.16,0.72 83.42,0.81 83.64,0.99 83.80,1.22 83.87,1.49 83.84,1.77 83.74,2.03 83.55,2.24 83.31,2.38 83.03,2.44 82.75,2.40 82.50,2.28 82.30,2.08 82.17,1.83 82.13,1.56 82.18,1.28 82.32,1.03 82.53,0.84 82.78,0.73 83.06,0.71 83.34,0.77 83.58,0.92 83.75,1.14 83.85,1.40 83.86,1.68 83.78,1.95 83.62,2.18 83.39,2.35 83.12,2.43 82.98,2.45 72.61,2.27 51.86,1.90 31.11,1.55 10.36,1.20 -0.14,1.02 -0.38,0.95 -0.60,0.83 -0.78,0.67 -0.92,0.46 -1.00,0.23 -1.03,-0.02 -0.99,-0.26 -0.90,-0.49 -0.76,-0.70 -0.57,-0.86 -0.35,-0.97 -0.10,-1.02 Z" fill="#ebbb38" stroke="#ebbb38" stroke-width="2.11" stroke-dasharray="none" stroke-dashoffset="none" stroke-linecap="round" stroke-linejoin="round" pointer-events="stroke"/><g><path d="M 71.29,-6.650974885502268 L 85,1.61 70.99,9.346155741225767" fill="none" stroke="#ebbb38" stroke-width="4.23" stroke-linecap="round" stroke-linejoin="round" pointer-events="none"/></g></g></g><text font-size="28px" font-family="Source Sans Pro" font-weight="normal" line-height="28px" letter-spacing="-0.03em" text-align="center" dominant-baseline="mathematical" alignment-baseline="mathematical" text-anchor="middle" fill="#ebbb38" transform="translate(449.50, 245.00) rotate(0.00, 29.50, 19.00)"><tspan y="14px" x="29.5">data
</tspan></text><g id="7eefc1d4-2341-4581-3a81-579b346c0c2f_svg" class="tl-centered-g" transform="translate(471.00, 152.06) rotate(0.00, 30.75, 0.50)"><defs><mask id="7eefc1d4-2341-4581-3a81-579b346c0c2f_clip"><rect x="-100" y="-100" width="261.5" height="201" fill="white"/><rect x="30.75" y="0.03" width="0" height="0" rx="2" ry="2" fill="black" opacity="1"/></mask></defs><g pointer-events="none" opacity="1" mask=""><path d="M0.00,-0.87 Q14.88,-0.77 22.31,-0.74 T37.19,-0.67 52.06,-0.61 59.61,-0.57 59.80,-0.50 59.97,-0.38 60.09,-0.20 60.14,-0.00 60.13,0.21 60.05,0.40 59.92,0.56 59.74,0.67 59.53,0.71 59.33,0.69 59.14,0.60 58.99,0.46 58.89,0.27 58.85,0.07 58.89,-0.14 58.99,-0.32 59.14,-0.47 59.33,-0.55 59.54,-0.58 59.74,-0.53 59.92,-0.42 60.05,-0.26 60.13,-0.07 60.14,0.14 60.09,0.34 59.97,0.51 59.80,0.64 59.60,0.70 59.50,0.72 52.06,0.73 37.19,0.75 22.31,0.79 7.44,0.84 -0.11,0.86 -0.31,0.81 -0.49,0.71 -0.65,0.57 -0.77,0.40 -0.84,0.21 -0.87,-0.00 -0.84,-0.21 -0.77,-0.40 -0.65,-0.57 -0.49,-0.71 -0.31,-0.81 -0.10,-0.86 Z" fill="#ebbb38" stroke="#ebbb38" stroke-width="2.11" stroke-dasharray="none" stroke-dashoffset="none" stroke-linecap="round" stroke-linejoin="round" pointer-events="stroke"/><g><path d="M 47.65,-7.945766327236836 L 61.5,0.07 47.63,8.054223308572027" fill="none" stroke="#ebbb38" stroke-width="4.23" stroke-linecap="round" stroke-linejoin="round" pointer-events="none"/></g></g></g><text font-size="28px" font-family="Source Sans Pro" font-weight="normal" line-height="28px" letter-spacing="-0.03em" text-align="center" dominant-baseline="mathematical" alignment-baseline="mathematical" text-anchor="middle" fill="#b7bdc3" transform="translate(540.50, 144.00) rotate(0.00, 44.50, 19.00)"><tspan y="14px" x="44.5">Python
</tspan></text><text font-size="28px" font-family="Source Sans Pro" font-weight="normal" line-height="28px" letter-spacing="-0.03em" text-align="center" dominant-baseline="mathematical" alignment-baseline="mathematical" text-anchor="middle" fill="#b7bdc3" transform="translate(546.00, 186.00) rotate(0.00, 39.00, 19.00)"><tspan y="14px" x="39">Model
</tspan></text><g id="d9ff069a-98b9-4018-296c-11436f6395f2_svg" class="tl-centered-g" transform="translate(661.17, 151.42) rotate(268.63, 72.33, 69.08)"><path d="M73.49,-0.54 Q75.22,2.78 76.30,4.86 T78.53,9.12 80.83,13.53 83.15,17.96 85.47,22.41 87.79,26.85 90.12,31.30 92.44,35.75 94.77,40.20 97.09,44.64 99.42,49.09 101.74,53.54 104.06,57.99 106.39,62.44 108.73,66.87 111.11,71.29 113.51,75.70 115.91,80.11 118.31,84.52 120.70,88.93 123.10,93.33 125.50,97.74 127.90,102.15 130.30,106.56 132.70,110.97 135.09,115.38 137.49,119.78 139.89,124.19 142.29,128.60 144.69,133.01 146.19,135.78 146.56,136.53 146.66,136.91 146.66,137.31 146.57,137.69 146.39,138.04 146.13,138.34 145.80,138.56 145.43,138.71 145.04,138.76 144.65,138.71 144.28,138.57 143.95,138.35 143.69,138.06 142.71,138.46 139.62,139.06 135.09,139.09 130.45,139.08 125.78,139.07 121.10,139.05 116.42,139.03 111.74,139.01 107.06,138.99 102.38,138.98 97.70,138.96 93.02,138.94 88.34,138.92 83.66,138.90 78.97,138.88 74.29,138.89 69.61,138.93 64.93,139.00 60.25,139.06 55.57,139.13 50.89,139.20 46.21,139.26 41.53,139.33 36.85,139.39 32.17,139.46 27.49,139.52 22.81,139.59 18.13,139.66 13.45,139.72 8.76,139.79 4.08,139.85 1.15,139.89 0.35,139.87 -0.03,139.78 -0.38,139.59 -0.68,139.33 -0.90,139.01 -1.05,138.64 -1.10,138.25 -1.05,137.86 -0.91,137.49 -0.69,137.16 -0.40,136.90 -0.05,136.71 0.34,136.62 0.51,135.44 1.57,132.18 3.81,127.87 6.14,123.48 8.48,119.06 10.84,114.63 13.19,110.19 15.55,105.76 17.91,101.33 20.26,96.90 22.62,92.46 24.98,88.03 27.33,83.60 29.69,79.17 32.05,74.73 34.39,70.29 36.69,65.83 38.97,61.36 41.25,56.89 43.53,52.42 45.82,47.94 48.10,43.47 50.38,39.00 52.66,34.53 54.95,30.06 57.23,25.59 59.51,21.12 61.79,16.64 64.07,12.17 66.36,7.70 68.64,3.23 70.08,0.43 70.48,-0.30 70.75,-0.60 71.07,-0.83 71.44,-0.97 71.83,-1.02 72.22,-0.97 72.59,-0.83 72.92,-0.61 73.18,-0.31 73.37,0.04 73.46,0.42 73.46,0.82 73.37,1.20 74.20,2.08 76.23,4.86 78.51,9.13 80.83,13.53 83.15,17.96 85.47,22.41 87.79,26.85 90.12,31.30 92.44,35.75 94.77,40.20 97.09,44.64 99.42,49.09 101.74,53.54 104.06,57.99 106.39,62.44 108.73,66.87 111.11,71.29 113.51,75.70 115.91,80.11 118.31,84.52 120.70,88.93 123.10,93.33 125.50,97.74 127.90,102.15 130.30,106.56 132.70,110.97 135.09,115.38 137.49,119.78 139.89,124.19 142.29,128.60 145.09,133.77 146.78,136.98 146.87,137.50 146.78,138.02 146.54,138.49 146.16,138.85 145.68,139.07 145.15,139.13 144.64,139.02 144.19,138.75 143.85,138.35 143.65,137.86 143.62,137.33 143.76,136.83 144.05,136.39 144.47,136.07 144.97,135.90 145.50,135.90 146.00,136.07 146.42,136.38 146.71,136.82 146.86,137.33 146.83,137.85 146.64,138.34 146.30,138.74 145.84,139.02 145.33,139.13 144.81,139.08 144.33,138.86 143.94,138.49 143.78,138.28 142.22,135.30 139.49,130.09 137.16,125.65 134.84,121.20 132.52,116.75 130.19,112.30 127.87,107.86 125.54,103.41 123.22,98.96 120.89,94.51 118.57,90.06 116.24,85.62 113.92,81.17 111.60,76.72 109.27,72.27 106.93,67.83 104.55,63.42 102.15,59.01 99.75,54.60 97.35,50.19 94.96,45.78 92.56,41.37 90.16,36.97 87.76,32.56 85.36,28.15 82.96,23.74 80.57,19.34 78.18,14.95 75.80,10.61 73.50,6.47 71.38,2.18 70.48,-0.30 70.75,-0.60 71.07,-0.83 71.44,-0.97 71.83,-1.02 72.22,-0.97 72.59,-0.83 72.92,-0.61 73.18,-0.31 73.37,0.04 73.46,0.42 73.46,0.81 73.37,1.20 73.00,1.95 71.53,4.74 69.17,9.17 66.82,13.60 64.46,18.03 62.10,22.47 59.75,26.90 57.39,31.33 55.03,35.76 52.68,40.20 50.32,44.63 47.96,49.06 45.61,53.49 43.25,57.93 40.89,62.36 38.54,66.79 36.20,71.23 33.90,75.70 31.61,80.17 29.33,84.64 27.05,89.11 24.77,93.58 22.48,98.05 20.20,102.52 17.92,106.99 15.64,111.47 13.36,115.94 11.08,120.40 8.80,124.86 6.56,129.28 4.45,133.51 2.00,137.73 0.35,139.87 -0.03,139.78 -0.38,139.59 -0.68,139.33 -0.90,139.01 -1.05,138.64 -1.10,138.25 -1.05,137.86 -0.91,137.49 -0.69,137.16 -0.40,136.90 -0.05,136.71 0.34,136.62 1.13,136.59 4.07,136.59 8.75,136.61 13.43,136.63 18.11,136.65 22.79,136.67 27.47,136.69 32.15,136.70 36.83,136.72 41.52,136.74 46.20,136.76 50.88,136.78 55.56,136.79 60.24,136.81 64.92,136.83 69.60,136.85 74.28,136.85 78.96,136.80 83.64,136.74 88.32,136.67 93.01,136.60 97.69,136.54 102.37,136.47 107.05,136.41 111.73,136.34 116.41,136.27 121.09,136.21 125.76,136.14 130.43,136.07 135.04,136.00 139.44,135.89 144.02,136.08 146.56,136.53 146.66,136.91 146.66,137.31 146.57,137.69 146.39,138.04 146.13,138.34 145.80,138.56 145.44,138.71 145.04,138.76 144.65,138.71 144.28,138.57 143.95,138.35 143.69,138.06 143.28,137.33 141.81,134.54 139.49,130.09 137.16,125.65 134.84,121.20 132.52,116.75 130.19,112.30 127.87,107.86 125.54,103.41 123.22,98.96 120.89,94.51 118.57,90.06 116.24,85.62 113.92,81.17 111.60,76.72 109.27,72.27 106.93,67.83 104.55,63.42 102.15,59.01 99.75,54.60 97.35,50.19 94.96,45.78 92.56,41.37 90.16,36.97 87.76,32.56 85.36,28.15 82.97,23.74 80.57,19.34 78.18,14.94 75.80,10.58 73.50,6.35 71.48,2.65 70.51,0.82 70.41,0.44 70.41,0.05 70.50,-0.34 70.68,-0.69 70.94,-0.99 71.27,-1.21 71.64,-1.35 72.03,-1.40 72.42,-1.36 72.79,-1.22 73.12,-1.00 73.38,-0.71 Z" fill="#b7bdc3" stroke="#b7bdc3" stroke-width="2" pointer-events="none"/></g><text font-size="28px" font-family="Source Sans Pro" font-weight="normal" line-height="28px" letter-spacing="-0.03em" text-align="center" dominant-baseline="mathematical" alignment-baseline="mathematical" text-anchor="middle" fill="#b7bdc3" transform="translate(711.50, 186.00) rotate(0.00, 44.50, 33.00)"><tspan y="14px" x="44.5">Format
</tspan><tspan y="42px" x="44.5">
Select
</tspan></text><g id="fd3f4997-9988-45b9-246d-0021a3907081_svg" class="tl-centered-g" transform="translate(844.00, 293.00) rotate(0.00, 0.50, 40.00)"><defs><mask id="fd3f4997-9988-45b9-246d-0021a3907081_clip"><rect x="-100" y="-100" width="201" height="280" fill="white"/><rect x="0" y="40" width="0" height="0" rx="2.5" ry="2.5" fill="black" opacity="1"/></mask></defs><g pointer-events="none" opacity="1" mask=""><path d="M0.89,0.00 Q0.81,20.00 0.78,30.00 T0.73,50.00 0.69,70.00 0.66,80.11 0.59,80.31 0.46,80.48 0.28,80.61 0.07,80.66 -0.14,80.65 -0.34,80.57 -0.51,80.43 -0.62,80.25 -0.67,80.04 -0.64,79.82 -0.55,79.63 -0.40,79.47 -0.21,79.37 0.00,79.33 0.21,79.37 0.40,79.47 0.55,79.63 0.64,79.82 0.67,80.04 0.62,80.25 0.51,80.43 0.34,80.57 0.14,80.65 -0.07,80.66 -0.28,80.61 -0.46,80.48 -0.59,80.31 -0.66,80.11 -0.68,80.00 -0.69,70.00 -0.73,50.00 -0.78,30.00 -0.85,10.00 -0.87,-0.11 -0.82,-0.31 -0.73,-0.50 -0.58,-0.66 -0.41,-0.78 -0.21,-0.86 0.00,-0.88 0.21,-0.86 0.41,-0.78 0.58,-0.66 0.73,-0.50 0.82,-0.31 0.87,-0.11 Z" fill="#b7bdc3" stroke="#b7bdc3" stroke-width="2.11" stroke-dasharray="none" stroke-dashoffset="none" stroke-linecap="round" stroke-linejoin="round" pointer-events="stroke"/></g></g><g id="77e25122-c9a4-431c-392d-643a9296dde2_svg" class="tl-centered-g" transform="translate(845.00, 375.00) rotate(0.00, 10.50, 0.50)"><defs><mask id="77e25122-c9a4-431c-392d-643a9296dde2_clip"><rect x="-100" y="-100" width="221" height="201" fill="white"/><rect x="10.5" y="0" width="0" height="0" rx="2" ry="2" fill="black" opacity="1"/></mask></defs><g pointer-events="none" opacity="1" mask=""><path d="M0.00,-0.97 Q5.25,-0.90 7.88,-0.88 T13.13,-0.83 18.38,-0.80 21.13,-0.77 21.36,-0.69 21.56,-0.53 21.70,-0.33 21.77,-0.08 21.76,0.17 21.66,0.40 21.50,0.59 21.29,0.72 21.04,0.77 20.79,0.75 20.56,0.64 20.38,0.47 20.26,0.25 20.22,-0.00 20.26,-0.25 20.38,-0.47 20.56,-0.64 20.79,-0.75 21.04,-0.77 21.29,-0.72 21.50,-0.59 21.66,-0.40 21.76,-0.17 21.77,0.08 21.70,0.33 21.56,0.53 21.36,0.69 21.13,0.77 21.00,0.79 18.38,0.80 13.13,0.83 7.88,0.88 2.63,0.93 -0.12,0.95 -0.34,0.90 -0.55,0.79 -0.72,0.64 -0.85,0.45 -0.93,0.23 -0.96,-0.00 -0.93,-0.23 -0.85,-0.45 -0.72,-0.64 -0.55,-0.79 -0.34,-0.90 -0.12,-0.95 Z" fill="#b7bdc3" stroke="#b7bdc3" stroke-width="2.11" stroke-dasharray="none" stroke-dashoffset="none" stroke-linecap="round" stroke-linejoin="round" pointer-events="stroke"/></g></g><g id="79b9e78d-0d28-4ac2-1bc0-2384a37f9a6b_svg" class="tl-centered-g" transform="translate(847.00, 293.00) rotate(0.00, 10.50, 0.50)"><defs><mask id="79b9e78d-0d28-4ac2-1bc0-2384a37f9a6b_clip"><rect x="-100" y="-100" width="221" height="201" fill="white"/><rect x="10.5" y="0" width="0" height="0" rx="2" ry="2" fill="black" opacity="1"/></mask></defs><g pointer-events="none" opacity="1" mask=""><path d="M0.00,-0.91 Q5.25,-0.84 7.88,-0.81 T13.13,-0.76 18.38,-0.73 21.11,-0.69 21.33,-0.62 21.51,-0.48 21.64,-0.29 21.70,-0.08 21.69,0.15 21.60,0.36 21.45,0.53 21.26,0.65 21.04,0.70 20.81,0.68 20.61,0.58 20.44,0.42 20.34,0.22 20.30,-0.00 20.34,-0.22 20.44,-0.42 20.61,-0.58 20.81,-0.68 21.04,-0.70 21.26,-0.65 21.45,-0.53 21.60,-0.36 21.69,-0.15 21.70,0.08 21.64,0.29 21.51,0.48 21.33,0.62 21.11,0.69 21.00,0.71 18.38,0.73 13.13,0.76 7.88,0.81 2.63,0.88 -0.11,0.90 -0.32,0.85 -0.51,0.75 -0.68,0.60 -0.80,0.42 -0.88,0.22 -0.91,-0.00 -0.88,-0.22 -0.80,-0.42 -0.68,-0.60 -0.51,-0.75 -0.32,-0.85 -0.11,-0.90 Z" fill="#b7bdc3" stroke="#b7bdc3" stroke-width="2.11" stroke-dasharray="none" stroke-dashoffset="none" stroke-linecap="round" stroke-linejoin="round" pointer-events="stroke"/></g></g><g id="74db371b-c1e9-401b-05c4-ee7bdf1f2da6_svg" class="tl-centered-g" transform="translate(829.00, 137.00) rotate(0.00, 0.50, 40.00)"><defs><mask id="74db371b-c1e9-401b-05c4-ee7bdf1f2da6_clip"><rect x="-100" y="-100" width="201" height="280" fill="white"/><rect x="0" y="40" width="0" height="0" rx="2.5" ry="2.5" fill="black" opacity="1"/></mask></defs><g pointer-events="none" opacity="1" mask=""><path d="M0.85,0.00 Q0.77,20.00 0.74,30.00 T0.68,50.00 0.64,70.00 0.61,80.10 0.54,80.29 0.42,80.45 0.26,80.56 0.07,80.61 -0.13,80.60 -0.32,80.53 -0.47,80.40 -0.57,80.23 -0.61,80.03 -0.59,79.84 -0.51,79.65 -0.37,79.51 -0.20,79.42 0.00,79.38 0.20,79.42 0.37,79.51 0.51,79.65 0.59,79.84 0.61,80.03 0.57,80.23 0.47,80.40 0.32,80.53 0.13,80.60 -0.07,80.61 -0.26,80.56 -0.42,80.45 -0.54,80.29 -0.61,80.10 -0.62,80.00 -0.64,70.00 -0.68,50.00 -0.74,30.00 -0.81,10.00 -0.84,-0.10 -0.79,-0.30 -0.70,-0.48 -0.56,-0.63 -0.39,-0.75 -0.20,-0.82 0.00,-0.84 0.20,-0.82 0.39,-0.75 0.56,-0.63 0.70,-0.48 0.79,-0.30 0.84,-0.10 Z" fill="#b7bdc3" stroke="#b7bdc3" stroke-width="2.11" stroke-dasharray="none" stroke-dashoffset="none" stroke-linecap="round" stroke-linejoin="round" pointer-events="stroke"/></g></g><g id="cebfb80f-28e2-44fd-0c1a-b7339d79a1fc_svg" class="tl-centered-g" transform="translate(833.00, 219.00) rotate(0.00, 14.00, 0.50)"><defs><mask id="cebfb80f-28e2-44fd-0c1a-b7339d79a1fc_clip"><rect x="-100" y="-100" width="228" height="201" fill="white"/><rect x="14" y="0.5" width="0" height="0" rx="2" ry="2" fill="black" opacity="1"/></mask></defs><g pointer-events="none" opacity="1" mask=""><path d="M0.04,-1.01 Q7.03,-0.69 10.53,-0.55 T17.53,-0.26 24.53,0.02 28.16,0.19 28.41,0.28 28.62,0.45 28.76,0.68 28.83,0.94 28.80,1.21 28.69,1.45 28.51,1.65 28.28,1.78 28.02,1.83 27.75,1.79 27.51,1.67 27.32,1.48 27.21,1.24 27.17,0.97 27.22,0.71 27.36,0.47 27.56,0.30 27.81,0.19 28.07,0.17 28.33,0.24 28.56,0.39 28.73,0.60 28.82,0.85 28.82,1.12 28.74,1.38 28.58,1.59 28.36,1.75 28.10,1.82 27.97,1.84 24.47,1.73 17.47,1.51 10.47,1.30 3.47,1.10 -0.16,0.99 -0.39,0.92 -0.60,0.80 -0.77,0.64 -0.90,0.43 -0.98,0.20 -1.00,-0.04 -0.96,-0.27 -0.87,-0.50 -0.72,-0.69 -0.54,-0.84 -0.32,-0.95 -0.08,-1.00 Z" fill="#b7bdc3" stroke="#b7bdc3" stroke-width="2.11" stroke-dasharray="none" stroke-dashoffset="none" stroke-linecap="round" stroke-linejoin="round" pointer-events="stroke"/></g></g><g id="468aa769-75a3-4687-212b-089b99a47b1f_svg" class="tl-centered-g" transform="translate(831.00, 136.00) rotate(0.00, 14.00, 0.50)"><defs><mask id="468aa769-75a3-4687-212b-089b99a47b1f_clip"><rect x="-100" y="-100" width="228" height="201" fill="white"/><rect x="14" y="0.5" width="0" height="0" rx="2" ry="2" fill="black" opacity="1"/></mask></defs><g pointer-events="none" opacity="1" mask=""><path d="M0.03,-0.89 Q7.03,-0.56 10.53,-0.41 T17.53,-0.11 24.52,0.18 28.13,0.34 28.33,0.42 28.50,0.56 28.62,0.74 28.67,0.95 28.65,1.17 28.56,1.36 28.41,1.52 28.22,1.63 28.01,1.67 27.80,1.64 27.61,1.54 27.45,1.39 27.36,1.19 27.33,0.98 27.37,0.76 27.48,0.58 27.65,0.43 27.84,0.35 28.06,0.33 28.27,0.39 28.45,0.51 28.58,0.68 28.66,0.88 28.66,1.10 28.60,1.30 28.47,1.48 28.29,1.60 28.08,1.66 27.98,1.68 24.48,1.57 17.47,1.36 10.47,1.16 3.47,0.97 -0.14,0.87 -0.34,0.81 -0.53,0.71 -0.68,0.56 -0.80,0.38 -0.86,0.18 -0.88,-0.03 -0.85,-0.24 -0.77,-0.44 -0.64,-0.61 -0.47,-0.74 -0.28,-0.84 -0.07,-0.88 Z" fill="#b7bdc3" stroke="#b7bdc3" stroke-width="2.11" stroke-dasharray="none" stroke-dashoffset="none" stroke-linecap="round" stroke-linejoin="round" pointer-events="stroke"/></g></g><g id="c8fb4ee7-3623-449d-3ab3-ee06b83c18d3_svg" class="tl-centered-g" transform="translate(831.00, 136.00) rotate(0.00, 14.00, 0.50)"><defs><mask id="c8fb4ee7-3623-449d-3ab3-ee06b83c18d3_clip"><rect x="-100" y="-100" width="228" height="201" fill="white"/><rect x="14" y="0.5" width="0" height="0" rx="2" ry="2" fill="black" opacity="1"/></mask></defs><g pointer-events="none" opacity="1" mask=""><path d="M0.04,-0.98 Q7.03,-0.67 10.53,-0.52 T17.53,-0.23 24.53,0.05 28.16,0.22 28.40,0.31 28.60,0.47 28.74,0.69 28.80,0.94 28.77,1.20 28.67,1.44 28.49,1.63 28.27,1.75 28.01,1.80 27.76,1.76 27.53,1.64 27.35,1.46 27.23,1.23 27.20,0.97 27.25,0.72 27.38,0.49 27.58,0.32 27.81,0.22 28.07,0.20 28.32,0.27 28.54,0.41 28.70,0.61 28.79,0.86 28.79,1.11 28.71,1.36 28.56,1.57 28.35,1.72 28.10,1.79 27.97,1.81 24.47,1.70 17.47,1.48 10.47,1.27 3.47,1.08 -0.15,0.96 -0.38,0.90 -0.58,0.78 -0.75,0.62 -0.88,0.42 -0.96,0.20 -0.98,-0.03 -0.94,-0.27 -0.85,-0.48 -0.71,-0.67 -0.53,-0.82 -0.31,-0.92 -0.08,-0.97 Z" fill="#b7bdc3" stroke="#b7bdc3" stroke-width="2.11" stroke-dasharray="none" stroke-dashoffset="none" stroke-linecap="round" stroke-linejoin="round" pointer-events="stroke"/></g></g><g id="776e7b32-c72b-4b1b-01f3-079246ef9ae9_svg" class="tl-centered-g" transform="translate(806.00, 268.00) rotate(0.00, 17.00, 12.00)"><defs><mask id="776e7b32-c72b-4b1b-01f3-079246ef9ae9_clip"><rect x="-100" y="-100" width="234" height="224" fill="white"/><rect x="17" y="12" width="0" height="0" rx="2" ry="2" fill="black" opacity="1"/></mask></defs><g pointer-events="none" opacity="1" mask=""><path d="M0.54,-0.76 Q8.59,5.01 12.62,7.89 T20.68,13.64 28.75,19.38 32.88,22.33 33.01,22.52 33.09,22.74 33.08,22.98 33.00,23.20 32.86,23.38 32.66,23.51 32.43,23.57 32.20,23.55 31.98,23.46 31.80,23.31 31.69,23.10 31.64,22.87 31.67,22.64 31.77,22.43 31.94,22.26 32.15,22.15 32.38,22.12 32.61,22.16 32.82,22.28 32.98,22.45 33.07,22.67 33.09,22.90 33.04,23.13 32.91,23.33 32.73,23.48 32.51,23.56 32.27,23.57 32.05,23.50 31.94,23.45 27.89,20.60 19.78,14.92 11.66,9.25 3.53,3.59 -0.62,0.69 -0.77,0.52 -0.87,0.32 -0.92,0.10 -0.92,-0.12 -0.86,-0.34 -0.76,-0.53 -0.61,-0.70 -0.42,-0.82 -0.21,-0.90 0.01,-0.92 0.23,-0.90 0.44,-0.81 Z" fill="#eb8b35" stroke="#eb8b35" stroke-width="2.11" stroke-dasharray="none" stroke-dashoffset="none" stroke-linecap="round" stroke-linejoin="round" pointer-events="stroke"/><g><path d="M 28.18,11.405130103057823 L 34,24 20.18,22.738463436391157" fill="none" stroke="#eb8b35" stroke-width="4.23" stroke-linecap="round" stroke-linejoin="round" pointer-events="none"/></g></g></g><g id="c62b35f6-bd9b-4a23-3aa5-c901b0ec554c_svg" class="tl-centered-g" transform="translate(806.00, 218.00) rotate(0.00, 13.50, 8.50)"><defs><mask id="c62b35f6-bd9b-4a23-3aa5-c901b0ec554c_clip"><rect x="-100" y="-100" width="227" height="217" fill="white"/><rect x="13.5" y="8.5" width="0" height="0" rx="2" ry="2" fill="black" opacity="1"/></mask></defs><g pointer-events="none" opacity="1" mask=""><path d="M-0.53,16.16 Q5.83,12.23 9.01,10.26 T15.36,6.31 21.70,2.35 24.99,0.32 25.25,0.25 25.51,0.28 25.75,0.38 25.95,0.56 26.07,0.79 26.12,1.05 26.08,1.31 25.97,1.54 25.78,1.73 25.54,1.84 25.28,1.88 25.02,1.83 24.79,1.70 24.62,1.50 24.52,1.26 24.50,0.99 24.56,0.74 24.71,0.52 24.91,0.35 25.16,0.27 25.42,0.26 25.67,0.34 25.89,0.49 26.04,0.71 26.11,0.96 26.11,1.22 26.01,1.47 25.85,1.68 25.75,1.76 22.59,3.77 16.28,7.77 9.97,11.79 3.68,15.82 0.42,17.89 0.20,17.97 -0.04,17.99 -0.28,17.95 -0.50,17.85 -0.69,17.71 -0.84,17.53 -0.94,17.31 -0.98,17.08 -0.97,16.84 -0.91,16.61 -0.79,16.40 -0.62,16.23 Z" fill="#eb2435" stroke="#eb2435" stroke-width="2.11" stroke-dasharray="none" stroke-dashoffset="none" stroke-linecap="round" stroke-linejoin="round" pointer-events="stroke"/><g><path d="M 16.37,0.4074772881118198 L 27,0 22.03,9.407477288111817" fill="none" stroke="#eb2435" stroke-width="4.23" stroke-linecap="round" stroke-linejoin="round" pointer-events="none"/></g></g></g></svg>